<?xml version="1.0" encoding="UTF-8"?>
<svg xmlns="http://www.w3.org/2000/svg" xmlns:xlink="http://www.w3.org/1999/xlink" width="300px" height="300px" viewBox="0 0 700 700" version="1.1">
  <!-- Generator: Sketch 43.2 (39069) - http://www.bohemiancoding.com/sketch -->
  <title>TGC Logo: Square</title>
  <desc>Created with Sketch.</desc>
  <defs></defs>
  <g id="Logo" stroke="none" stroke-width="1" fill="none" fill-rule="evenodd">
    <g id="TGC-Logo:-Square">
      <path d="M700,349.993039 C700,543.29353 543.299725,699.994768 350,699.994768 C156.703175,699.994768 0,543.29353 0,349.993039 C0,156.701238 156.703175,0 350,0 C543.299725,0 700,156.701238 700,349.993039 Z" id="Circle" fill="#D06348"></path>
      <path d="M116.034625,297.15994 C130.210145,297.15994 141.87285,302.322191 151.912515,310.888282 C153.095016,312.070211 153.245727,313.840208 152.063226,315.022137 C149.846037,317.383099 147.634644,319.593423 145.414556,321.954385 C144.234954,323.286952 143.052453,323.136314 141.577225,321.803747 C134.638727,315.757946 125.483039,311.768935 116.472266,311.768935 C95.5060607,311.768935 79.411875,329.480494 79.411875,350.146876 C79.411875,370.665518 95.5060607,388.377077 116.472266,388.377077 C128.732019,388.377077 137.145745,383.947739 138.623871,383.359671 L138.623871,366.827144 L124.152726,366.827144 C122.529685,366.827144 121.350083,365.648112 121.350083,364.1707 L121.350083,355.610403 C121.350083,353.991044 122.529685,352.809114 124.152726,352.809114 L151.028538,352.809114 C152.503766,352.809114 153.686267,354.135888 153.686267,355.610403 C153.686267,367.418109 153.836977,379.521297 153.836977,391.329003 C153.836977,392.064812 153.245727,393.243845 152.654476,393.689965 C152.654476,393.689965 137.44137,403.432192 116.034625,403.432192 C86.6459984,403.432192 62.8742515,379.967418 62.8742515,350.448153 C62.8742515,320.92599 86.6459984,297.15994 116.034625,297.15994" id="Fill-8" fill="#FFFFFF"></path>
      <path d="M209.239769,298.206278 L218.986707,298.206278 C220.461935,298.206278 221.795147,299.533052 221.795147,301.016257 L221.795147,387.804056 L261.808892,387.804056 C263.437729,387.804056 264.617332,389.130829 264.617332,390.605344 L264.617332,398.719521 C264.617332,400.202726 263.437729,401.526603 261.808892,401.526603 L209.239769,401.526603 C207.619627,401.526603 206.437126,400.202726 206.437126,398.719521 L206.437126,301.016257 C206.437126,299.533052 207.619627,298.206278 209.239769,298.206278 Z" id="Fill-9" fill="#FFFFFF"></path>
      <path d="M349.885848,369.312672 C366.53072,369.312672 380.158472,355.813185 380.158472,339.17637 C380.158472,322.640947 366.53072,308.79673 349.885848,308.79673 C333.351112,308.79673 319.726258,322.640947 319.726258,339.17637 C319.726258,355.813185 333.351112,369.312672 349.885848,369.312672 L349.885848,369.312672 Z M349.885848,297.15994 C373.170699,297.15994 391.800898,315.896997 391.800898,339.17637 C391.800898,362.44995 373.170699,380.952359 349.885848,380.952359 C326.5981,380.952359 308.083832,362.44995 308.083832,339.17637 C308.083832,315.896997 326.5981,297.15994 349.885848,297.15994 L349.885848,297.15994 Z" id="Fill-10" fill="#FFFFFF"></path>
      <path d="M492.928045,343.079037 C502.376459,343.079037 508.141151,336.135202 508.141151,327.279423 C508.141151,318.281696 502.376459,312.08236 492.928045,312.08236 L472.993629,312.08236 L472.993629,343.079037 L492.928045,343.079037 L492.928045,343.079037 Z M495.290148,387.9489 C504.300921,387.9489 511.236521,381.007962 511.236521,371.865391 C511.236521,362.858973 502.672084,356.364155 493.078755,356.364155 L472.842918,356.364155 L472.842918,387.9489 L495.290148,387.9489 L495.290148,387.9489 Z M457.934132,301.016257 C457.934132,299.533052 459.113734,298.206278 460.736775,298.206278 L493.812022,298.206278 C511.682857,298.206278 524.528064,310.013984 524.528064,325.509426 C524.528064,336.876805 516.114338,344.993879 509.170043,348.98289 C517.001213,352.230299 527.632129,359.46672 527.632129,373.044423 C527.632129,389.57695 514.044961,401.526603 495.440859,401.526603 L460.736775,401.526603 C459.113734,401.526603 457.934132,400.202726 457.934132,398.719521 L457.934132,301.016257 L457.934132,301.016257 Z" id="Fill-11" fill="#FFFFFF"></path>
      <path d="M579.491018,301.016257 C579.491018,299.533052 580.673519,298.206278 582.302356,298.206278 L641.366539,298.206278 C642.98958,298.206278 644.169182,299.533052 644.169182,301.016257 L644.169182,309.281072 C644.169182,310.749793 642.98958,312.08236 641.366539,312.08236 L594.704124,312.08236 L594.704124,342.195487 L634.129518,342.195487 C635.604745,342.195487 636.937957,343.525158 636.937957,344.993879 L636.937957,353.261591 C636.937957,354.886744 635.604745,356.068673 634.129518,356.068673 L594.704124,356.068673 L594.704124,387.804056 L641.366539,387.804056 C642.98958,387.804056 644.169182,389.130829 644.169182,390.605344 L644.169182,398.719521 C644.169182,400.202726 642.98958,401.526603 641.366539,401.526603 L582.302356,401.526603 C580.673519,401.526603 579.491018,400.202726 579.491018,398.719521 L579.491018,301.016257" id="Fill-12" fill="#FFFFFF"></path>
      <rect id="Rectangle" fill="#FFFFFF" x="319.610778" y="396.562033" width="62.8742515" height="10.6112923" rx="1.75"></rect>
    </g>
  </g>
</svg>
