<svg style="position: absolute; width: 0; height: 0;" width="0" height="0" version="1.1" xmlns="http://www.w3.org/2000/svg" xmlns:xlink="http://www.w3.org/1999/xlink">
<defs>
<symbol id="fmt-unlink" viewBox="0 0 1024 1024">
<title>fmt-unlink</title>
<path class="path1" d="M429.58 691.533l-30.72 31.469c-13.487 12.987-29.721 19.481-48.702 19.481s-35.216-6.494-48.702-19.481c-6.494-6.494-11.489-13.861-14.985-22.103s-5.245-17.108-5.245-26.599c0-8.991 1.748-17.608 5.245-25.85s8.492-15.61 14.985-22.103l113.889-113.14c11.988-11.489 27.723-22.728 47.204-33.717s37.463-8.242 53.947 8.242c7.493 6.993 16.484 10.49 26.974 10.49s19.231-3.746 26.224-11.239c7.493-7.493 11.239-16.484 11.239-26.974s-3.746-19.481-11.239-26.974c-27.473-26.974-60.066-38.213-97.78-33.717s-74.302 24.476-109.768 59.941l-114.638 113.14c-13.487 13.986-23.977 29.721-31.469 47.204s-11.239 35.715-11.239 54.697c0 19.481 3.746 37.963 11.239 55.446s17.982 33.217 31.469 47.204c13.986 13.986 29.971 24.476 47.953 31.469s36.215 10.49 54.697 10.49c18.482 0 36.589-3.497 54.322-10.49s33.592-17.483 47.579-31.469l31.469-31.469c7.493-6.993 11.239-15.735 11.239-26.224s-3.746-19.481-11.239-26.974c-7.493-7.493-16.484-11.239-26.974-11.239s-19.481 3.497-26.974 10.49v0 0zM776.492 250.963c-29.971-29.471-63.438-44.831-100.402-46.080s-69.182 11.614-96.656 38.587l-38.962 38.962c-7.493 6.993-11.239 15.735-11.239 26.224s3.746 19.481 11.239 26.974c7.493 7.493 16.484 11.239 26.974 11.239s19.481-3.497 26.974-10.49l38.213-38.962c14.486-13.986 30.096-19.231 46.829-15.735s31.095 11.239 43.083 23.227c6.494 6.494 11.489 13.861 14.985 22.103s5.245 17.108 5.245 26.599c0 8.991-1.748 17.608-5.245 25.85s-8.492 15.61-14.985 22.103l-121.382 120.632c-27.973 27.473-49.202 38.837-63.688 34.092s-24.476-10.115-29.971-16.109c-7.493-6.993-16.484-10.49-26.974-10.49s-19.231 3.746-26.224 11.239c-7.493 7.493-11.239 16.484-11.239 26.974s3.746 19.231 11.239 26.224c12.488 12.987 25.975 22.603 40.461 28.847s29.471 9.366 44.956 9.366c18.482 0 37.463-4.62 56.944-13.862s38.712-23.352 57.694-42.334l122.131-120.632c13.487-13.987 23.976-29.721 31.469-47.204s11.239-35.715 11.239-54.697c0-19.481-3.746-37.963-11.239-55.446s-17.982-33.217-31.469-47.204v0 0z"></path>
<path class="path2" d="M219.429 555.886h629.029v-87.771h-672.914v87.771h43.886z"></path>
</symbol>
<symbol id="add-block" viewBox="0 0 1024 1024">
<title>add-block</title>
<path class="path1" d="M512 1024c282.77 0 512-229.23 512-512s-229.23-512-512-512c-282.77 0-512 229.23-512 512s229.23 512 512 512v0zM512 986.764c-262.205 0-474.764-212.559-474.764-474.764s212.559-474.764 474.764-474.764c262.205 0 474.764 212.559 474.764 474.764s-212.559 474.764-474.764 474.764v0z"></path>
<path class="path2" d="M763.345 521.309c0 11.038-1.183 20.498-3.548 28.382s-9.329 11.826-20.892 11.826h-177.388v178.177c0 11.038-3.942 17.739-11.826 20.104s-17.345 3.548-28.382 3.548c-11.038 0-20.498-1.183-28.382-3.548s-11.826-9.066-11.826-20.104v-178.177h-177.388c-11.563 0-18.527-3.942-20.892-11.826s-3.548-17.345-3.548-28.382c0-11.037 1.183-20.498 3.548-28.382s9.329-11.826 20.892-11.826h177.388v-177.388c0-11.037 3.942-17.87 11.826-20.498s17.345-3.942 28.382-3.942c11.037 0 20.498 1.314 28.382 3.942s11.826 9.461 11.826 20.498v177.388h177.388c11.563 0 18.527 3.942 20.892 11.826s3.548 17.345 3.548 28.382v0 0z"></path>
</symbol>
<symbol id="fmt-bold" viewBox="0 0 1024 1024">
<title>fmt-bold</title>
<path class="path1" d="M442.286 737.28l-36.343-119.314h-182.743l-36.343 119.314h-114.514l176.914-503.314h129.943l177.6 503.314h-114.514zM380.571 528.823c-33.6-108.115-52.514-169.257-56.743-183.429s-7.257-25.371-9.086-33.6c-7.543 29.257-29.143 101.599-64.8 217.029h130.629zM855.086 737.28l-20.229-52.114h-2.743c-17.6 22.172-35.714 37.543-54.343 46.114s-42.914 12.857-72.857 12.857c-36.8 0-65.771-10.514-86.914-31.543s-31.714-50.971-31.714-89.829c0-40.686 14.228-70.686 42.686-90s71.371-30 128.743-32.057l66.514-2.057v-16.8c0-38.857-19.886-58.286-59.657-58.286-30.629 0-66.628 9.257-108 27.771l-34.629-70.629c44.115-23.086 93.028-34.629 146.743-34.629 51.429 0 90.857 11.2 118.286 33.6s41.143 56.457 41.143 102.171v255.429h-73.029zM824.229 559.68l-40.457 1.371c-30.4 0.914-53.028 6.4-67.886 16.457s-22.286 25.371-22.286 45.943c0 29.486 16.914 44.229 50.743 44.229 24.229 0 43.6-6.971 58.114-20.914s21.771-32.457 21.771-55.543v-31.543z"></path>
</symbol>
<symbol id="fmt-italic" viewBox="0 0 1024 1024">
<title>fmt-italic</title>
<path class="path1" d="M426.743 577.851h-170.057l-84 159.429h-64.8l273.943-501.257h59.657l63.086 501.257h-58.286l-19.543-159.429zM420.571 524.366l-12-102.514c-5.486-40.914-8.8-80.914-9.943-120-8.457 20.114-17.657 40.114-27.6 60s-38.457 74.057-85.543 162.514h135.086zM756.914 354.651c21.029 0 39.771 5.657 56.229 16.971s29.257 27.6 38.4 48.857h3.771l22.971-58.971h43.543l-79.886 375.771h-45.6l8.914-71.657h-2.743c-40.915 52.343-84 78.514-129.257 78.514-31.772 0-56.686-11.314-74.743-33.943s-27.086-53.6-27.086-92.914c0-47.543 8.114-91.657 24.343-132.343s38.628-72.571 67.2-95.657c28.572-23.086 59.886-34.629 93.943-34.629v0zM691.771 696.48c22.172 0 44.228-10.571 66.171-31.714s39.771-48.686 53.486-82.629c13.714-33.943 20.571-67.943 20.571-102 0-23.543-6.4-42.286-19.2-56.229s-29.6-20.914-50.4-20.914c-23.772 0-45.886 9.828-66.343 29.486s-36.514 46.286-48.171 79.886c-11.657 33.6-17.486 69.028-17.486 106.286 0 26.057 5.371 45.543 16.114 58.457s25.828 19.371 45.257 19.371v0z"></path>
</symbol>
<symbol id="fmt-link" viewBox="0 0 1024 1024">
<title>fmt-link</title>
<path class="path1" d="M400.323 691.533l-30.72 31.469c-13.487 12.987-29.721 19.481-48.702 19.481s-35.216-6.494-48.702-19.481c-6.494-6.494-11.489-13.861-14.985-22.103s-5.245-17.108-5.245-26.599c0-8.991 1.748-17.608 5.245-25.85s8.492-15.61 14.985-22.103l113.889-113.14c11.988-11.489 27.723-22.728 47.204-33.717s37.463-8.242 53.947 8.242c7.493 6.993 16.484 10.49 26.974 10.49s19.231-3.746 26.224-11.239c7.493-7.493 11.239-16.484 11.239-26.974s-3.746-19.481-11.239-26.974c-27.473-26.974-60.066-38.213-97.78-33.717s-74.302 24.476-109.768 59.941l-114.638 113.14c-13.487 13.986-23.977 29.721-31.469 47.204s-11.239 35.715-11.239 54.697c0 19.481 3.746 37.963 11.239 55.446s17.982 33.217 31.469 47.204c13.986 13.986 29.971 24.476 47.953 31.469s36.215 10.49 54.697 10.49c18.482 0 36.589-3.497 54.322-10.49s33.592-17.483 47.579-31.469l31.469-31.469c7.493-6.993 11.239-15.735 11.239-26.224s-3.746-19.481-11.239-26.974c-7.493-7.493-16.484-11.239-26.974-11.239s-19.481 3.497-26.974 10.49v0zM747.235 250.963c-29.971-29.471-63.438-44.831-100.402-46.080s-69.182 11.614-96.656 38.587l-38.962 38.962c-7.493 6.993-11.239 15.735-11.239 26.224s3.746 19.481 11.239 26.974c7.493 7.493 16.484 11.239 26.974 11.239s19.481-3.497 26.974-10.49l38.213-38.962c14.486-13.986 30.096-19.231 46.829-15.735s31.095 11.239 43.083 23.227c6.494 6.494 11.489 13.861 14.985 22.103s5.245 17.108 5.245 26.599c0 8.991-1.748 17.608-5.245 25.85s-8.492 15.61-14.985 22.103l-121.382 120.632c-27.973 27.473-49.202 38.837-63.688 34.092s-24.476-10.115-29.971-16.109c-7.493-6.993-16.484-10.49-26.974-10.49s-19.231 3.746-26.224 11.239c-7.493 7.493-11.239 16.484-11.239 26.974s3.746 19.231 11.239 26.224c12.488 12.987 25.975 22.603 40.461 28.847s29.471 9.366 44.956 9.366c18.482 0 37.463-4.62 56.944-13.862s38.712-23.352 57.694-42.334l122.131-120.632c13.487-13.987 23.976-29.721 31.469-47.204s11.239-35.715 11.239-54.697c0-19.481-3.746-37.963-11.239-55.446s-17.982-33.217-31.469-47.204v0z"></path>
</symbol>
<symbol id="fmt-quote" viewBox="0 0 1024 1024">
<title>fmt-quote</title>
<path class="path1" d="M609.098 688.034l94.84-194.197h-144.519v-289.037h289.037v289.037l-94.84 194.197h-144.518zM222.963 688.034l97.098-194.197h-144.518v-289.037h289.037v289.037l-97.098 194.197h-144.519z"></path>
</symbol>
<symbol id="fmt-heading" viewBox="0 0 1024 1024">
<title>fmt-heading</title>
<path class="path1" d="M566.9 737.28h-105.943v-216.343h-198.514v216.343h-106.286v-501.257h106.286v196.457h198.514v-196.457h105.943v501.257zM847.871 737.28h-79.457v-217.543l0.771-35.743 1.286-39.086c-13.2 13.2-22.371 21.857-27.514 25.971l-43.2 34.714-38.314-47.829 121.114-96.429h65.314v375.943z"></path>
</symbol>
<symbol id="fmt-quote2" viewBox="0 0 1024 1024">
<title>fmt-quote2</title>
<path class="path1" d="M609.098 688.034l94.84-194.197h-144.519v-289.037h289.037v289.037l-94.84 194.197h-144.518zM222.963 688.034l97.098-194.197h-144.518v-289.037h289.037v289.037l-97.098 194.197h-144.519z"></path>
</symbol>
<symbol id="move" viewBox="0 0 1057 1024">
<title>move</title>
<path fill="#444444" class="path1" d="M231.226 115.613c0 63.851-51.762 115.613-115.613 115.613s-115.613-51.762-115.613-115.613c0-63.851 51.762-115.613 115.613-115.613s115.613 51.762 115.613 115.613z"></path>
<path fill="#444444" class="path2" d="M627.613 115.613c0 63.851-51.762 115.613-115.613 115.613s-115.613-51.762-115.613-115.613c0-63.851 51.762-115.613 115.613-115.613s115.613 51.762 115.613 115.613z"></path>
<path fill="#444444" class="path3" d="M1057.032 115.613c0 63.851-51.762 115.613-115.613 115.613s-115.613-51.762-115.613-115.613c0-63.851 51.762-115.613 115.613-115.613s115.613 51.762 115.613 115.613z"></path>
<path fill="#444444" class="path4" d="M627.613 512c0 63.851-51.762 115.613-115.613 115.613s-115.613-51.762-115.613-115.613c0-63.851 51.762-115.613 115.613-115.613s115.613 51.762 115.613 115.613z"></path>
<path fill="#444444" class="path5" d="M231.226 512c0 63.851-51.762 115.613-115.613 115.613s-115.613-51.762-115.613-115.613c0-63.851 51.762-115.613 115.613-115.613s115.613 51.762 115.613 115.613z"></path>
<path fill="#444444" class="path6" d="M231.226 908.387c0 63.851-51.762 115.613-115.613 115.613s-115.613-51.762-115.613-115.613c0-63.851 51.762-115.613 115.613-115.613s115.613 51.762 115.613 115.613z"></path>
</symbol>
<symbol id="minus" viewBox="0 0 1138 1024">
<title>minus</title>
<path fill="#444" class="path1" d="M0 398.222v227.556h1137.778v-227.556h-1137.778z"></path>
</symbol>
<symbol id="plus" viewBox="0 0 1024 1024">
<title>plus</title>
<path class="path1" d="M409.6 1024h204.8v-1024h-204.8v1024z"></path>
<path class="path2" d="M0 409.6v204.8h1024v-204.8h-1024z"></path>
</symbol>
<symbol id="rotate" viewBox="0 0 731 1024">
<title>rotate</title>
<path fill="#444" class="path1" d="M36.571 292.571l292.571-292.571v585.143z"></path>
<path fill="#444" class="path2" d="M329.143 219.429c222.176 0 402.286 180.109 402.286 402.286s-180.109 402.286-402.286 402.286c-116.682 0-221.761-49.676-295.243-129.033l107.361-99.365c46.761 50.5 113.63 82.112 187.882 82.112 141.385 0 256-114.615 256-256s-114.615-256-256-256v-146.286z"></path>
</symbol>
<symbol id="tick" viewBox="0 0 1229 1024">
<title>tick</title>
<path fill="#444" class="path1" d="M409.211 705.049l-233.625-247.667-144.815 144.815 377.227 377.226 790.033-790.033-144.815-144.815-644.004 660.473z"></path>
</symbol>
<symbol id="bottom" viewBox="0 0 931 1024">
<title>bottom</title>
<path fill="#444" class="path1" d="M0 1024v-93.091h930.909v93.091h-930.909z"></path>
<path fill="#444" class="path2" d="M418.909 930.909v-930.909h93.091v930.909h-93.091z"></path>
<path fill="#444" class="path3" d="M465.455 977.455l279.273-279.273h-558.545z"></path>
</symbol>
<symbol id="center-align" viewBox="0 0 1138 1024">
<title>center-align</title>
<path fill="#444" class="path1" d="M0 0v113.778h1137.778v-113.778h-1137.778z"></path>
<path fill="#444" class="path2" d="M0 455.111v113.778h1137.778v-113.778h-1137.778z"></path>
<path fill="#444" class="path3" d="M0 910.222v113.778h1137.778v-113.778h-1137.778z"></path>
<path fill="#444" class="path4" d="M227.556 227.556v113.778h682.667v-113.778h-682.667z"></path>
<path fill="#444" class="path5" d="M227.556 682.667v113.778h682.667v-113.778h-682.667z"></path>
</symbol>
<symbol id="left-align" viewBox="0 0 1138 1024">
<title>left-align</title>
<path fill="#444" class="path1" d="M0 0v113.778h1137.778v-113.778h-1137.778z"></path>
<path fill="#444" class="path2" d="M0 455.111v113.778h1137.778v-113.778h-1137.778z"></path>
<path fill="#444" class="path3" d="M0 910.222v113.778h1137.778v-113.778h-1137.778z"></path>
<path fill="#444" class="path4" d="M0 227.556v113.778h682.667v-113.778h-682.667z"></path>
<path fill="#444" class="path5" d="M0 682.667v113.778h682.667v-113.778h-682.667z"></path>
</symbol>
<symbol id="middle" viewBox="0 0 788 1024">
<title>middle</title>
<path fill="#444" class="path1" d="M0 472.615v78.769h787.692v-78.769h-787.692z"></path>
<path fill="#444" class="path2" d="M354.462 0v1024h78.769v-1024h-78.769z"></path>
<path fill="#444" class="path3" d="M393.846 512l236.308-236.308h-472.615z"></path>
<path fill="#444" class="path4" d="M393.846 512l236.308 236.308h-472.615z"></path>
</symbol>
<symbol id="right-align" viewBox="0 0 1138 1024">
<title>right-align</title>
<path fill="#444" class="path1" d="M1137.778 0v113.778h-1137.778v-113.778h1137.778z"></path>
<path fill="#444" class="path2" d="M1137.778 455.111v113.778h-1137.778v-113.778h1137.778z"></path>
<path fill="#444" class="path3" d="M1137.778 910.222v113.778h-1137.778v-113.778h1137.778z"></path>
<path fill="#444" class="path4" d="M1137.778 227.556v113.778h-682.667v-113.778h682.667z"></path>
<path fill="#444" class="path5" d="M1137.778 682.667v113.778h-682.667v-113.778h682.667z"></path>
</symbol>
<symbol id="top" viewBox="0 0 931 1024">
<title>top</title>
<path fill="#444" class="path1" d="M0 0v93.091h930.909v-93.091h-930.909z"></path>
<path fill="#444" class="path2" d="M418.909 93.091v930.909h93.091v-930.909h-93.091z"></path>
<path fill="#444" class="path3" d="M465.455 46.545l279.273 279.273h-558.545z"></path>
</symbol>
<symbol id="game" viewBox="0 0 1024 1024">
<title>game</title>
<path class="path1" d="M874.573 658.936c-23.164 138.599-143.668 244.232-288.845 244.232-161.744 0-292.864-131.12-292.864-292.864 0-17.466 1.529-34.575 4.46-51.2h-264.556v-241.664h317.972l42.476 42.476 42.476-42.476h170.516v0.705c124.804 8.621 228.092 95.436 261.222 211.802 13.931-11.219 31.718-17.947 51.098-17.947 44.678 0 80.896 35.76 80.896 79.872s-36.218 79.872-80.896 79.872c-16.207 0-31.3-4.705-43.955-12.808v0zM878.592 591.872c0-21.373 17.764-38.912 39.936-38.912s39.936 17.539 39.936 38.912c0 21.373-17.764 38.912-39.936 38.912s-39.936-17.539-39.936-38.912zM333.774 358.4h-260.046v159.744h277.487c-11.226 28.543-17.391 59.632-17.391 92.16 0 139.123 112.781 251.904 251.904 251.904s251.904-112.781 251.904-251.904c0-137.069-109.476-248.568-245.76-251.831v-0.073h-139.214l-59.442 59.442-59.442-59.442z"></path>
</symbol>
<symbol id="competition" viewBox="0 0 1024 1024">
<title>competition</title>
<path class="path1" d="M244.974 876.846l50.626-295.166-214.45-209.038 296.362-43.064 132.538-268.552 132.538 268.552 296.364 43.064-214.45 209.038 50.624 295.166-265.076-139.36zM169.17 401.242l170.44 166.138-40.234 234.59 210.674-110.758 210.676 110.758-40.236-234.59 170.44-166.138-235.542-34.226-105.338-213.438-105.338 213.438-21.31 3.096z"></path>
</symbol>
<symbol id="republish" viewBox="0 0 1024 1024">
<title>republish</title>
<path class="path1" d="M887.466 580.266l-273.066 273.068v-204.8h-341.334v-136.534h341.334v-204.8l204.8 204.8zM1024 580.266l-273.066 273.068h-68.268l273.068-273.068-273.068-273.066h68.268zM460.664 307.144l-0.058-51.144h-443.54v648.534h443.734v-187.166h-102.4l0.922 84.584-233.632-0.342-5.086-441.208 237.694-2.058 0.102 87.118 102.4-0.102-0.136-138.216z"></path>
</symbol>
<symbol id="uni64" viewBox="0 0 1024 1024">
<title>uni64</title>
<path class="path1" d="M2.962 203.852q6.518-11.852 18.37-11.852h981.334q11.852 0 18.37 11.852t-1.778 22.518l-490.666 597.334q-7.112 8.296-16.592 8.296-11.852 0-16.592-8.296l-490.666-597.334q-8.296-10.666-1.778-22.518z"></path>
</symbol>
<symbol id="Arrange" viewBox="0 0 1024 1024">
<title>Arrange</title>
<path class="path1" d="M0 611.226l278.802-278.836 278.802 278.836-80.35 80.35-198.452-198.52-198.452 198.52-80.35-80.35zM466.262 412.808l80.384-80.418 198.418 198.486 198.486-198.486 80.45 80.418-278.904 278.766-278.834-278.766z"></path>
</symbol>
<symbol id="tweet" viewBox="0 0 1024 1024">
<title>tweet</title>
<path class="path1" d="M224.48 827.824c37.566 7.878 77.62 11.814 119.788 11.814 148.91 0 273.288-57.622 362.258-158.594 80.488-91.346 126.020-213.046 126.020-329.684 0-1.846-0.016-3.324-0.082-5.542-0.098-3.386-0.288-7.086-0.59-11.082-0.824-10.904-2.356-22.27-4.748-33.62-6.25-29.65-17.298-54.122-33.072-69.99-28.894-29.764-67.156-46.72-107.462-46.72-80.286 0-144.902 64.616-144.902 144.902 0 13.412 1.016 24.592 3.15 33.844l12.248 53.068-54.384-2.96c-139.556-7.594-267.5-62.654-364.716-154.576-0.386 4.194-0.578 8.474-0.578 12.87 0 48.824 24.394 93.398 64.718 120.28l119.978 79.986-144.11-4.97c-9.73-0.334-19.358-1.288-28.85-2.84 18.764 42.51 56.646 74.218 103.302 83.434l173.328 34.236-170.71 45.524c-7.918 2.11-16.042 3.79-24.294 5.034 26.15 28.416 63.404 46.22 103.528 46.742l114.374 1.484-89.318 71.456c-41.676 33.34-87.272 59.252-134.876 75.904zM873.506 351.36c0 245.718-186.914 529.238-529.238 529.238-105.008 0-203.714-23.102-285.62-75.606 14.702 2.1 29.402 3.15 44.104 3.15 87.156 0 168.012-37.802 231.016-88.206-80.856-1.050-150.162-55.654-173.262-129.16 11.55 2.102 23.1 3.152 34.652 3.152 16.8 0 33.602-2.102 49.354-6.302-85.056-16.8-149.112-92.406-149.112-184.812 25.202 13.65 53.554 22.052 84.006 23.102-50.402-33.604-82.956-90.308-82.956-154.362 0-34.652 9.452-63.004 25.202-90.306 92.408 112.358 228.916 182.712 383.278 191.114-3.15-13.652-4.2-28.352-4.2-43.054 0-102.906 82.956-185.862 185.862-185.862 53.38 0 101.544 22.952 136.172 58.456 41.376-8.482 80.68-24.090 115.898-44.806-13.53 42.672-42.534 79.154-80.876 102.292 0.058 0.158 0.116 0.32 0.174 0.48 37.358-4.288 72.658-14.722 105.904-29.266-25.004 37.506-56.212 69.846-91.57 95.99 1.212 13.118 1.212 22.342 1.212 24.768z"></path>
</symbol>
<symbol id="binopen" viewBox="0 0 960 1024">
<title>binopen</title>
<path class="path1" d="M387.648 13.248l452.544 452.544-45.248 45.248-452.544-452.544zM546.048 81.12l226.272 226.272-45.248 45.28-226.304-226.304zM160 576h640v64h-640zM288 640h384v384h-384z"></path>
</symbol>
<symbol id="publish" viewBox="0 0 1024 1024">
<title>publish</title>
<path class="path1" d="M887.466 580.266l-273.066 273.068v-204.8h-341.334v-136.534h341.334v-204.8zM460.664 307.144l-0.058-51.144h-443.54v648.534h443.734v-187.166h-102.4l0.922 84.584-233.632-0.342-5.086-441.208 237.694-2.058 0.102 87.118 102.4-0.102-0.136-138.216z"></path>
</symbol>
<symbol id="iframe" viewBox="0 0 1024 1024">
<title>iframe</title>
<path class="path1" d="M224.256 510.976c0-45.242 36.678-81.92 81.92-81.92s81.92 36.678 81.92 81.92c0 45.242-36.678 81.92-81.92 81.92s-81.92-36.678-81.92-81.92zM347.136 510.976c0-22.622-18.338-40.96-40.96-40.96s-40.96 18.338-40.96 40.96c0 22.622 18.338 40.96 40.96 40.96s40.96-18.338 40.96-40.96zM429.056 510.976c0-45.242 36.678-81.92 81.92-81.92s81.92 36.678 81.92 81.92c0 45.242-36.678 81.92-81.92 81.92s-81.92-36.678-81.92-81.92zM551.936 510.976c0-22.622-18.338-40.96-40.96-40.96s-40.96 18.338-40.96 40.96c0 22.622 18.338 40.96 40.96 40.96s40.96-18.338 40.96-40.96zM633.856 510.976c0-45.242 36.678-81.92 81.92-81.92s81.92 36.678 81.92 81.92c0 45.242-36.678 81.92-81.92 81.92s-81.92-36.678-81.92-81.92zM756.736 510.976c0-22.622-18.338-40.96-40.96-40.96s-40.96 18.338-40.96 40.96c0 22.622 18.338 40.96 40.96 40.96s40.96-18.338 40.96-40.96zM947.252 512.684l-313.5 312.738 28.88 29.044 343.728-341.782-344.964-342.462-28.858 29.066 314.714 313.396zM32.474 498.162l-14.63 14.522 343.728 341.782 28.882-29.044-314.546-312.738 315.76-313.396-28.858-29.066-330.336 327.94z"></path>
</symbol>
<symbol id="uni75" viewBox="0 0 1024 1024">
<title>uni75</title>
<path class="path1" d="M0 938.666q0-35.556 24.888-60.444l290.37-289.186q-59.26-92.444-59.26-205.038 0-158.814 112.592-271.408t271.408-112.592 271.408 112.592 112.592 271.408-112.592 271.408-271.408 112.592q-112.592 0-205.038-59.26l-289.186 290.37q-24.888 24.888-60.444 24.888t-60.444-24.888-24.888-60.444zM384 384q0 105.482 75.26 180.74t180.74 75.26 180.74-75.26 75.26-180.74-75.26-180.74-180.74-75.26-180.74 75.26-75.26 180.74z"></path>
</symbol>
<symbol id="cross2" viewBox="0 0 1024 1024">
<title>cross2</title>
<path class="path1" d="M222.378 705.092l96.53 96.53 482.714-482.714-96.53-96.53-482.714 482.714zM318.908 222.378l-96.53 96.53 482.714 482.714 96.53-96.53-482.714-482.714z"></path>
</symbol>
<symbol id="link" viewBox="0 0 1024 1024">
<title>link</title>
<path class="path1" d="M953.396 74.642l-4.028-4.042c-94.148-94.134-248.194-94.134-342.326 0l-218.106 218.136c-94.134 94.132-94.134 248.176 0 342.31l4.026 4.026c7.832 7.848 16.146 14.924 24.736 21.458l79.848-79.85c-9.302-5.494-18.126-12.072-26.116-20.060l-4.042-4.042c-51.114-51.098-51.114-134.272 0-185.39l218.128-218.112c51.116-51.118 134.274-51.118 185.386 0l4.042 4.024c51.1 51.116 51.1 134.292 0 185.39l-98.686 98.686c17.132 42.308 25.248 87.4 24.538 132.386l152.604-152.604c94.134-94.136 94.134-248.178-0.004-342.316zM631.042 388.934c-7.832-7.832-16.146-14.922-24.736-21.44l-79.848 79.832c9.304 5.496 18.126 12.074 26.116 20.062l4.042 4.040c51.116 51.116 51.116 134.272 0 185.388l-218.13 218.134c-51.118 51.102-134.276 51.102-185.388 0l-4.042-4.042c-51.098-51.12-51.098-134.276 0-185.388l98.688-98.686c-17.134-42.306-25.246-87.402-24.538-132.386l-152.602 152.598c-94.136 94.132-94.136 248.178 0 342.324l4.026 4.032c94.152 94.128 248.192 94.128 342.328 0l218.11-218.118c94.134-94.132 94.134-248.194 0-342.326l-4.026-4.024z"></path>
</symbol>
<symbol id="view" viewBox="0 0 1024 1024">
<title>view</title>
<path class="path1" d="M512 785.066c-238.934 0-443.734-273.066-443.734-273.066s204.8-273.066 443.734-273.066c238.934 0 443.734 273.066 443.734 273.066s-204.8 273.066-443.734 273.066zM512 648.534c75.4 0 136.534-61.134 136.534-136.534s-61.134-136.534-136.534-136.534c-75.4 0-136.534 61.134-136.534 136.534s61.134 136.534 136.534 136.534z"></path>
</symbol>
<symbol id="user" viewBox="0 0 1024 1024">
<title>user</title>
<path class="path1" d="M853.334 853.334c-244.782 1.98-488.698 1.98-682.668 0 0-115.598 117.272-212.014 273.068-234.156v-57.172c-40.812-23.61-68.268-67.732-68.268-118.272 0-3.016 0.104-6.008 0.286-8.966-20.56-11.764-34.418-33.918-34.418-59.302s13.858-47.536 34.418-59.3c-0.182-2.958-0.286-5.95-0.286-8.966 0-75.4 61.134-136.534 136.534-136.534s136.534 61.134 136.534 136.534c0 3.016-0.104 6.008-0.286 8.966 20.56 11.764 34.418 33.916 34.418 59.3s-13.858 47.538-34.418 59.302c0.182 2.958 0.286 5.95 0.286 8.966 0 50.54-27.456 94.662-68.268 118.272v57.172c155.796 22.142 273.068 118.558 273.068 234.156z"></path>
</symbol>
<symbol id="edit" viewBox="0 0 1024 1024">
<title>edit</title>
<path class="path1" d="M281.11 594.91l377.334-373.452 134.064 134.154-374.864 374.306-136.534 1.104zM898.856 263.85l-70.678 71.054-139.982-140.048 70.668-71.054 32.882 0.272 106.598 104.414zM153.6 256h-68.266v682.666h682.666v-340.218l-136.534 136.762v66.924h-409.6v-409.6h68.268l136.396-136.534h-272.93z"></path>
</symbol>
<symbol id="Tick" viewBox="0 0 1024 1024">
<title>Tick</title>
<path class="path1" d="M375.204 640.694l-155.75-165.102-96.54 96.54 251.484 251.482 526.688-526.688-96.54-96.54-429.342 440.308z"></path>
</symbol>
<symbol id="poll" viewBox="0 0 1024 1024">
<title>poll</title>
<path class="path1" d="M63.488 266.24h245.76v532.48h-245.76zM104.448 757.76h163.84v-450.56h-163.84zM1004.62 880.64v-40.96h-983.116v40.96h983.116zM392.192 144.384h245.76v653.312h-245.76zM433.152 756.736h163.84v-571.392h-163.84zM718.848 389.12h245.76v409.6h-245.76zM759.808 430.080v327.68h163.84v-327.68z"></path>
</symbol>
<symbol id="bump" viewBox="0 0 1024 1024">
<title>bump</title>
<path class="path1" d="M580.266 384h208.418l-273.066-256-273.066 256h201.182v266.65h136.532v-266.65zM170.666 716.8h682.668v136.534h-682.668z"></path>
</symbol>
<symbol id="back" viewBox="0 0 682 1024">
<title>back</title>
<path class="path1" d="M512 994.702l160.882-160.882-321.764-321.82 321.764-321.82-160.882-160.882-482.702 482.702 482.702 482.702z"></path>
</symbol>
<symbol id="next" viewBox="0 0 682 1024">
<title>next</title>
<path class="path1" d="M190.18 29.298l-160.882 160.882 321.764 321.82-321.764 321.82 160.882 160.882 482.702-482.702-482.702-482.702z"></path>
</symbol>
<symbol id="text" viewBox="0 0 1024 1024">
<title>text</title>
<path class="path1" d="M638.068 191.506l191.274 191.364-506.776 508.938-191.922-1.596 0.648-189.768zM171.744 849.592l133.946 1.114 465.794-467.782-133.362-133.424-465.928 467.916zM850.324 358.71l-190.434-190.426 96.488-96.962 44.816 0.292 145.020 141.974 0.596 48.162zM717.746 168.212l132.506 132.502 55.388-55.66-0.174-14.036-121.094-118.552-11.078-0.072z"></path>
</symbol>
<symbol id="bin" viewBox="0 0 1024 1024">
<title>bin</title>
<path class="path1" d="M170.666 375.466h682.668v68.268h-682.668zM170.666 238.934h682.668v68.266h-682.668zM341.334 170.666h341.332v68.268h-341.332zM307.2 443.734h409.6v409.6h-409.6z"></path>
</symbol>
<symbol id="instagram" viewBox="0 0 1024 1024">
<title>instagram</title>
<path class="path1" d="M673.792 354.304h126.976v-126.976h-126.976v126.976zM759.808 268.288v45.056h-45.056v-45.056h45.056z"></path>
<path class="path2" d="M184.32 491.52v-307.2h655.36v309.248h-144.498c-10.178-91.025-87.392-161.792-181.134-161.792-93.038 0-169.795 69.707-180.894 159.744h-148.834zM184.32 532.48v307.2h655.36v-305.152h-144.498c-10.178 91.025-87.392 161.792-181.134 161.792-94.444 0-172.112-71.83-181.352-163.84h-148.376zM143.36 880.64h737.28v-737.28h-737.28v737.28zM372.736 514.048c0-78.044 63.268-141.312 141.312-141.312s141.312 63.268 141.312 141.312c0 78.044-63.268 141.312-141.312 141.312s-141.312-63.268-141.312-141.312z"></path>
</symbol>
<symbol id="emphasis" viewBox="0 0 1024 1024">
<title>emphasis</title>
<path fill="#444444" class="path1" d="M1004.621 880.64v-40.96h-983.117v40.96h983.117z"></path>
<path fill="#444444" class="path2" d="M1005.645 186.368v-40.96h-983.117v40.96h983.117z"></path>
<path fill="#444444" class="path3" d="M962.794 532.48v-40.96h-376.904v40.96h376.904z"></path>
<path fill="#444444" class="path4" d="M837.118 694.272v-40.96h-251.228v40.96h251.228z"></path>
<path fill="#444444" class="path5" d="M837.118 368.64v-40.96h-251.228v40.96h251.228z"></path>
<path fill="#444444" class="path6" d="M485.376 314.368v-40.96h-397.312v40.96h397.312z"></path>
<path fill="#444444" class="path7" d="M256 397.312v-40.96h-167.936v40.96h167.936z"></path>
<path fill="#444444" class="path8" d="M227.328 753.608h40.96v-397.256h-40.96v397.256z"></path>
<path fill="#444444" class="path9" d="M309.248 753.608h40.96v-397.256h-40.96v397.256z"></path>
<path fill="#444444" class="path10" d="M391.339 769.024v-40.96h-204.8v40.96h204.8z"></path>
<path fill="#444444" class="path11" d="M63.488 231.424h40.96v204.8h-40.96v-204.8z"></path>
<path fill="#444444" class="path12" d="M473.088 231.424h40.96v204.8h-40.96v-204.8z"></path>
<path fill="#444444" class="path13" d="M514.048 397.312v-40.96h-204.8v40.96h204.8z"></path>
</symbol>
<symbol id="cross" viewBox="0 0 1024 1024">
<title>cross</title>
<path class="path1" d="M222.378 705.092l96.53 96.53 482.714-482.714-96.53-96.53-482.714 482.714zM318.908 222.378l-96.53 96.53 482.714 482.714 96.53-96.53-482.714-482.714z"></path>
</symbol>
<symbol id="default" viewBox="0 0 1024 1024">
<title>default</title>
<path fill="#000" class="path1" d="M365.714 365.714h292.571v292.571h-292.571v-292.571z"></path>
<path fill="#000" class="path2" d="M0 365.714h292.571v292.571h-292.571v-292.571z"></path>
<path fill="#000" class="path3" d="M0 0h292.571v292.571h-292.571v-292.571z"></path>
<path fill="#000" class="path4" d="M731.429 0h292.571v292.571h-292.571v-292.571z"></path>
<path fill="#000" class="path5" d="M365.714 0h292.571v292.571h-292.571v-292.571z"></path>
<path fill="#000" class="path6" d="M0 731.429h292.571v292.571h-292.571v-292.571z"></path>
<path fill="#000" class="path7" d="M731.429 720.53h292.571v292.571h-292.571v-292.571z"></path>
<path fill="#000" class="path8" d="M365.714 720.53h292.571v292.571h-292.571v-292.571z"></path>
<path fill="#000" class="path9" d="M731.429 365.714h292.571v292.571h-292.571v-292.571z"></path>
</symbol>
<symbol id="enhancedobject" viewBox="0 0 38 30">
  <path fill-rule="evenodd" d="M34.428 1.5c-.098-.415-.366-.77-.805-1.06-.44-.294-.926-.44-1.463-.44H5.243C4.707 0 4.22.146 3.78.44c-.44.29-.707.645-.804 1.06l-.403 2.23H34.83l-.402-2.23zm1.902 4.096H1.074c-.317 0-.585.12-.805.365-.22.25-.31.53-.26.85l1.72 21.83c.022.367.174.678.454.934s.603.384.97.384H34.24c.367 0 .69-.128.97-.384.28-.258.433-.57.457-.935L37.39 6.8c.05-.316-.037-.596-.257-.84s-.487-.365-.804-.365zm-13.057 6.327c.488 0 .902.17 1.244.512.34.34.512.755.512 1.243 0 .488-.18.902-.52 1.243-.34.35-.758.52-1.246.52-.487 0-.9-.17-1.243-.51-.342-.34-.512-.754-.512-1.242s.17-.9.512-1.242c.34-.34.755-.51 1.242-.51zM10.29 22.455l4.645-10.715 5.303 8.594 4.535-2.267 2.34 4.388H10.29z"/>
</symbol>
<symbol id="file" viewBox="0 0 19 36">
  <path fill-rule="evenodd" d="M15.685 8.74H18v17.724c0 2.363-.82 4.376-2.46 6.04C13.9 34.168 11.9 35 9.536 35c-2.363 0-4.376-.832-6.04-2.496C1.832 30.84 1 28.827 1 26.464V7.22c0-1.687.615-3.146 1.845-4.375C4.075 1.615 5.533 1 7.22 1c1.69 0 3.136.615 4.342 1.845 1.205 1.23 1.808 2.688 1.808 4.376v16.21c0 1.06-.374 1.965-1.12 2.712-.75.747-1.653 1.12-2.714 1.12-1.06 0-1.977-.373-2.75-1.12-.77-.748-1.156-1.65-1.156-2.713V8.74h2.315v14.686c0 .434.156.795.47 1.085.313.29.687.438 1.12.438.435 0 .797-.145 1.086-.434.29-.29.438-.65.438-1.084V7.22c0-1.06-.373-1.976-1.12-2.748-.748-.77-1.653-1.157-2.714-1.157-1.06 0-1.976.386-2.748 1.157-.77.772-1.157 1.688-1.157 2.75v19.242c0 1.688.614 3.147 1.844 4.376 1.23 1.23 2.688 1.845 4.376 1.845 1.687 0 3.134-.615 4.34-1.845 1.205-1.23 1.81-2.688 1.81-4.376V8.74z"/>
</symbol>
<symbol id="embed" viewBox="0 0 44 29">
  <path fill-rule="evenodd" stroke-width="2" d="M17.43 4.93L7.86 14.5l9.57 9.57L14.5 27 2 14.5 14.5 2l2.93 2.93zm8.945 19.14l9.57-9.57-9.57-9.57L29.305 2l12.5 12.5-12.5 12.5-2.93-2.93z"/>
</symbol>
<symbol id="video" viewBox="0 0 45 28">
  <path fill-rule="evenodd" d="M27.607 0c1.003 0 1.844.34 2.525 1.02.68.68 1.02 1.522 1.02 2.525V23.74c0 1.003-.34 1.88-1.02 2.632-.68.752-1.522 1.128-2.525 1.128H3.867c-1.002 0-1.898-.376-2.685-1.128C.394 25.62 0 24.742 0 23.74V3.545C0 2.542.376 1.7 1.128 1.02 1.88.34 2.793 0 3.868 0h23.74zm6.768 9.13l10.527-5.693v20.625L34.375 18.37V9.13z"/>
</symbol>
<symbol id="image" viewBox="0 0 35 30">
  <path fill-rule="evenodd" d="M25.94 12.276c-1.03 0-1.904-.358-2.625-1.074-.72-.716-1.08-1.586-1.08-2.61 0-1.022.36-1.89 1.08-2.607.72-.716 1.596-1.075 2.625-1.075 1.03 0 1.905.36 2.625 1.075.72.716 1.08 1.585 1.08 2.608 0 1.023-.36 1.893-1.08 2.61-.72.715-1.595 1.073-2.625 1.073zM32.425 0c.618 0 1.133.205 1.544.614.41.41.614.92.614 1.534v25.167c0 .613-.206 1.125-.618 1.534-.412.405-.927.61-1.545.61H2.163c-.62 0-1.133-.205-1.544-.614C.206 28.44 0 27.926 0 27.314V2.148C0 1.535.206 1.023.618.614 1.028.204 1.544 0 2.162 0h30.263zm-7.952 15.192l7.643 8.133V3.375c0-.613-.334-.92-1.003-.92H3.473c-.565 0-.9.307-1.003.92v19.95l9.728-11.663c.412-.41.85-.613 1.313-.613.57 0 1.007.175 1.316.533l4.17 4.527.308.307c.31.204.593.306.85.306s.566-.128.926-.383l1.39-1.227c.36-.256.694-.384 1.003-.384.41 0 .746.152 1.003.46z"/>
</symbol>
<symbol id="promo" viewBox="0 0 39 32">
  <g transform="translate(2 2)">
    <rect fill="none" fill-rule="evenodd" width="35" height="28" stroke="#000000" stroke-width="2.5" rx="2"/>
    <path fill-rule="evenodd" d="M17 18l-3.06 3.39.232-4.562-4.563.233L13 14l-3.39-3.06 4.562.232-.233-4.563L17 10l3.06-3.39-.232 4.562 4.563-.233L21 14l3.39 3.06-4.562-.232.233 4.563L17 18z"/>
  </g>
</symbol>
<symbol id="list" viewBox="0 0 44 28">
  <path fill-rule="evenodd" d="M3 6c1.657 0 3-1.343 3-3S4.657 0 3 0 0 1.343 0 3s1.343 3 3 3zm0 11c1.657 0 3-1.343 3-3s-1.343-3-3-3-3 1.343-3 3 1.343 3 3 3zm0 11c1.657 0 3-1.343 3-3s-1.343-3-3-3-3 1.343-3 3 1.343 3 3 3zm7-25c0-1.657 1.343-3 3.002-3h27.996C42.656 0 44 1.347 44 3c0 1.657-1.343 3-3.002 3H13.002C11.344 6 10 4.653 10 3zm0 11c0-1.657 1.343-3 3.002-3h27.996C42.656 11 44 12.347 44 14c0 1.657-1.343 3-3.002 3H13.002C11.344 17 10 15.653 10 14zm0 11c0-1.657 1.343-3 3.002-3h27.996C42.656 22 44 23.347 44 25c0 1.657-1.343 3-3.002 3H13.002C11.344 28 10 26.653 10 25z"/>
</symbol>
<symbol id="event" viewBox="0 0 35 32">
    <path d="M32.425 3c.618 0 1.133.198 1.544.593.41.395.61.89.61 1.482v24.313c0 .593-.208 1.087-.62 1.482-.41.395-.927.593-1.545.593H2.162c-.62 0-1.133-.198-1.544-.593-.415-.395-.62-.89-.62-1.482V5.075c0-.593.205-1.087.617-1.482C1.027 3.198 1.543 3 2.16 3h30.264z"/>
    <rect width="28.65" height="18" x="3" y="10" fill="#FFF" rx="1"/>
    <path stroke-width="4" d="M10 8.5v-8m14 8v-8"/>
    <path d="M17.995 23.07v-1.362h-3.677c-.463 0-.81-.105-1.043-.315-.232-.21-.348-.496-.348-.857 0-.093.017-.187.05-.282.035-.096.087-.196.155-.3.068-.106.14-.207.212-.305l.27-.36 3.883-5.2c.254-.34.463-.59.626-.745.164-.154.36-.23.59-.23.742 0 1.113.424 1.113 1.274v5.67h.315c.38 0 .68.05.91.153.23.102.34.327.34.674 0 .283-.09.49-.28.62-.18.13-.46.193-.83.193h-.446v1.364c0 .375-.083.654-.25.837-.165.186-.387.277-.665.277-.274 0-.495-.096-.663-.284-.17-.185-.252-.462-.252-.83zm-3.15-3.003h3.15v-4.255l-3.15 4.255z"/>
</symbol>
<symbol id="heading" viewBox="0 0 37 30">
    <path fill-rule="evenodd" stroke-width="2.5" d="M1.5 28.25H35" stroke-linecap="round"/>
    <path fill-rule="evenodd" d="M26.94 12.276c-1.03 0-1.904-.358-2.625-1.074-.72-.716-1.08-1.586-1.08-2.61 0-1.022.36-1.89 1.08-2.607.72-.716 1.596-1.075 2.625-1.075 1.03 0 1.905.36 2.625 1.075.72.716 1.08 1.585 1.08 2.608 0 1.023-.36 1.893-1.08 2.61-.72.715-1.595 1.073-2.625 1.073zM33.425 0c.618 0 1.133.16 1.544.48.41.32.61.718.61 1.197v19.646c0 .48-.208.878-.62 1.198-.41.32-.927.48-1.545.48H3.162c-.62 0-1.133-.16-1.544-.48-.415-.32-.62-.71-.62-1.19V1.68c0-.48.205-.88.617-1.2C2.027.16 2.543 0 3.16 0h30.264zm-.31 19V3.263c0-.54-.333-.808-1.002-.808H4.473c-.565 0-.9.27-1.003.808V19l9.728-8.472c.412-.36.85-.538 1.313-.538.57 0 1.01.157 1.32.47L20 14.43l.307.27c.31.178.593.268.85.268s.566-.112.926-.336l1.39-1.077c.36-.224.695-.336 1.004-.336.41 0 .746.13 1.003.4L33.12 19z"/>
</symbol>
<symbol id="calltoaction" viewBox="0 0 49 49">
  <path fill-rule="evenodd" d="M0 14.01C0 6.27 6.268 0 14.01 0h20.98C42.73 0 49 6.268 49 14.01v20.98C49 42.73 42.732 49 34.99 49H14.01C6.27 49 0 42.732 0 34.99V14.01zm10 9.49c0-.828.665-1.5 1.505-1.5h24.99c.83 0 1.505.674 1.505 1.5v2c0 .828-.665 1.5-1.505 1.5h-24.99c-.83 0-1.505-.674-1.505-1.5v-2z"/>
</symbol>
<symbol id="quote" viewBox="0 0 17 13">
  <path fill-rule="evenodd" d="M12.875 6.08h.26c.75 0 1.43.29 2.037.873.61.582.914 1.307.914 2.177 0 .843-.305 1.552-.914 2.127-.608.575-1.36.863-2.257.863-.99 0-1.806-.4-2.448-1.204-.642-.803-.964-1.92-.964-3.35 0-1.03.168-2 .502-2.91.335-.91.766-1.703 1.294-2.38.525-.675 1.093-1.21 1.702-1.604C13.612.277 14.16.08 14.64.08c.442 0 .78.123 1.014.37.234.248.35.58.35.994 0 .602-.26 1.037-.78 1.305-.737.41-1.292.87-1.667 1.37-.375.502-.602 1.154-.682 1.957zm-8.87 0h.28c.764 0 1.45.29 2.058.873.61.582.913 1.307.913 2.177 0 .856-.304 1.562-.913 2.117-.61.555-1.36.833-2.258.833-.976 0-1.79-.39-2.438-1.174-.65-.783-.973-1.896-.973-3.34 0-1.326.284-2.567.853-3.724.568-1.157 1.264-2.073 2.087-2.75C4.436.418 5.17.08 5.81.08c.43 0 .764.127 1.004.38.24.255.362.583.362.984 0 .59-.26 1.024-.783 1.305-.71.384-1.27.84-1.686 1.36-.414.522-.648 1.177-.702 1.967z"/>
</symbol>
</defs>
</svg>
