<svg xmlns="http://www.w3.org/2000/svg" class="svg-icon">
    <symbol id="admin-menu" viewBox="0 0 100 100">
      <title>Menu</title><g fill-rule="nonzero" fill="currentColor"><path d="M0 0h25v25H0zM38 0h25v25H38zM75 0h25v25H75zM0 38h25v25H0zM38 38h25v25H38zM75 38h25v25H75zM0 75h25v25H0zM38 75h25v25H38zM75 75h25v25H75z"/></g>
    </symbol>
    <symbol id="tgc-logo-long" viewBox="0 0 1880 110">
      <title>The Globe Church</title><g fill="none" fill-rule="evenodd"><path d="M26.876 15.732H2.808C1.183 15.732 0 14.398 0 12.927V4.65c0-1.486 1.183-2.814 2.808-2.814h63.499c1.62 0 2.8 1.328 2.8 2.814v8.277c0 1.47-1.18 2.805-2.8 2.805H42.234V102.5c0 1.486-1.328 2.812-2.803 2.812h-9.747c-1.475 0-2.808-1.326-2.808-2.812V15.732M114.61 4.65c0-1.486 1.333-2.814 2.808-2.814h9.747c1.62 0 2.803 1.328 2.803 2.814v41.24h54.044V4.65c0-1.486 1.183-2.814 2.812-2.814h9.744c1.478 0 2.802 1.328 2.802 2.814v97.85c0 1.485-1.324 2.81-2.802 2.81h-9.744c-1.63 0-2.812-1.325-2.812-2.81V59.784h-54.044v42.714c0 1.486-1.183 2.812-2.803 2.812h-9.747c-1.475 0-2.808-1.326-2.808-2.812V4.65M257.58 4.65c0-1.486 1.179-2.814 2.802-2.814h59.064c1.63 0 2.812 1.328 2.812 2.814v8.277c0 1.47-1.183 2.805-2.812 2.805h-46.662v30.159h39.431c1.478 0 2.803 1.331 2.803 2.802v8.28a2.803 2.803 0 0 1-2.803 2.812h-39.431v31.782h46.662c1.63 0 2.812 1.33 2.812 2.806v8.126c0 1.486-1.183 2.812-2.812 2.812h-59.064c-1.623 0-2.803-1.326-2.803-2.812V4.65M481.765.359c14.175 0 25.838 5.17 35.878 13.749 1.182 1.183 1.333 2.956.15 4.14-2.217 2.364-4.428 4.578-6.648 6.942-1.18 1.335-2.362 1.184-3.838-.15-6.938-6.055-16.094-10.05-25.105-10.05-20.966 0-37.06 17.738-37.06 38.435 0 20.55 16.094 38.287 37.06 38.287 12.26 0 20.674-4.435 22.152-5.024V70.13h-14.471c-1.623 0-2.803-1.18-2.803-2.66v-8.573c0-1.622 1.18-2.806 2.803-2.806h26.876c1.475 0 2.657 1.329 2.657 2.806 0 11.825.151 23.946.151 35.772 0 .737-.591 1.918-1.182 2.364 0 0-15.213 9.757-36.62 9.757-29.389 0-53.16-23.5-53.16-53.063 0-29.567 23.771-53.368 53.16-53.368M575.11 1.836h9.747c1.475 0 2.808 1.328 2.808 2.814v86.917h40.014c1.629 0 2.808 1.33 2.808 2.806v8.126c0 1.486-1.18 2.812-2.808 2.812h-52.57c-1.62 0-2.802-1.326-2.802-2.812V4.65c0-1.485 1.183-2.813 2.803-2.813z" fill="currentColor"/><path d="M716.118 73.464c16.645 0 30.272-13.52 30.272-30.182 0-16.56-13.627-30.425-30.272-30.425-16.535 0-30.16 13.865-30.16 30.425 0 16.662 13.625 30.182 30.16 30.182zm0-72.26c23.285 0 41.915 18.764 41.915 42.078 0 23.309-18.63 41.839-41.915 41.839-23.288 0-41.802-18.53-41.802-41.839 0-23.314 18.514-42.079 41.802-42.079z" fill="#D06348"/><path d="M858.823 46.775c9.449 0 15.213-6.954 15.213-15.823 0-9.011-5.764-15.22-15.213-15.22H838.89v31.043h19.934zm2.362 44.937c9.011 0 15.947-6.95 15.947-16.107 0-9.02-8.565-15.525-18.158-15.525h-20.236v31.632h22.447zM823.83 4.65c0-1.486 1.18-2.814 2.803-2.814h33.075c17.871 0 30.716 11.825 30.716 27.344 0 11.384-8.414 19.513-15.358 23.508 7.831 3.252 18.462 10.5 18.462 24.098 0 16.557-13.587 28.525-32.191 28.525h-34.704c-1.623 0-2.803-1.326-2.803-2.812V4.65zM945.23 4.65c0-1.486 1.182-2.814 2.811-2.814h59.064c1.623 0 2.803 1.328 2.803 2.814v8.277c0 1.47-1.18 2.805-2.803 2.805h-46.662v30.159h39.425c1.476 0 2.809 1.331 2.809 2.802v8.28c0 1.628-1.333 2.812-2.809 2.812h-39.425v31.782h46.662c1.623 0 2.803 1.33 2.803 2.806v8.126c0 1.486-1.18 2.812-2.803 2.812h-59.064c-1.629 0-2.811-1.326-2.811-2.812V4.65M1169.569.359c14.909 0 25.693 5.025 35.733 13.749 1.327 1.183 1.327 2.956.145 4.14l-6.498 6.65c-1.03 1.325-2.362 1.325-3.687 0-6.944-6.058-16.396-9.908-25.551-9.908-21.111 0-37.06 17.738-37.06 38.435 0 20.694 16.09 38.287 37.21 38.287 10.78 0 18.312-4.282 25.401-9.756 1.325-1.03 2.658-.885 3.545-.151l6.79 6.655c1.183 1.033.887 2.957-.15 3.987-10.043 9.765-22.74 14.343-35.878 14.343-29.534 0-53.311-23.5-53.311-53.063 0-29.567 23.777-53.368 53.31-53.368M1256.437 4.515c0-1.486 1.328-2.814 2.803-2.814h9.753c1.623 0 2.802 1.328 2.802 2.814v41.24h54.047V4.516c0-1.486 1.18-2.814 2.809-2.814h9.738c1.484 0 2.811 1.328 2.811 2.814v97.85c0 1.485-1.327 2.81-2.81 2.81h-9.74c-1.628 0-2.808-1.325-2.808-2.81V59.65h-54.047v42.714c0 1.486-1.18 2.812-2.803 2.812h-9.752c-1.475 0-2.803-1.326-2.803-2.812V4.514M1397.762 4.65c0-1.486 1.334-2.814 2.803-2.814h9.898c1.629 0 2.808 1.328 2.808 2.814v61.047c0 14.782 9.452 26.311 24.508 26.311 15.213 0 24.807-11.384 24.807-26.015V4.65c0-1.486 1.182-2.814 2.808-2.814h9.898c1.47 0 2.802 1.328 2.802 2.814v62.086c0 22.467-16.978 40.054-40.315 40.054-23.18 0-40.017-17.587-40.017-40.054V4.65M1576.758 52.096c9.593 0 18.013-8.132 18.013-18.33 0-9.606-8.42-17.596-18.013-17.596h-26.285v35.926h26.285zM1534.964 4.65c0-1.486 1.18-2.814 2.809-2.814h40.164c17.72 0 32.192 14.047 32.192 31.634 0 13.601-9.011 24.835-21.856 30.005l20.236 37.553c1.028 1.918 0 4.283-2.513 4.283h-11.521c-1.18 0-2.066-.734-2.362-1.326l-19.636-39.176h-22.3v37.69c0 1.486-1.327 2.812-2.81 2.812h-9.594c-1.629 0-2.809-1.326-2.809-2.812V4.65zM1708.496.359c14.918 0 25.7 5.025 35.742 13.749 1.325 1.183 1.325 2.956.145 4.14l-6.498 6.65c-1.037 1.325-2.362 1.325-3.69 0-6.944-6.058-16.392-9.908-25.548-9.908-21.114 0-37.06 17.738-37.06 38.435 0 20.694 16.091 38.287 37.21 38.287 10.777 0 18.312-4.282 25.399-9.756 1.327-1.03 2.652-.885 3.544-.151l6.785 6.655c1.183 1.033.893 2.957-.142 3.987-10.042 9.765-22.743 14.343-35.887 14.343-29.533 0-53.305-23.5-53.305-53.063 0-29.567 23.772-53.368 53.305-53.368M1795.06 4.515c0-1.486 1.327-2.814 2.803-2.814h9.752c1.623 0 2.803 1.328 2.803 2.814v41.24h54.047V4.516c0-1.486 1.18-2.814 2.809-2.814h9.738c1.484 0 2.811 1.328 2.811 2.814v97.85c0 1.485-1.327 2.81-2.811 2.81h-9.738c-1.63 0-2.809-1.325-2.809-2.81V59.65h-54.047v42.714c0 1.486-1.18 2.812-2.803 2.812h-9.752c-1.476 0-2.803-1.326-2.803-2.812V4.514" fill="currentColor"/><rect fill="#D06348" x="685.843" y="100.204" width="62.874" height="10.627" rx="1.75"/></g>
    </symbol></svg>