<?xml version="1.0" encoding="UTF-8"?>
<svg width="1880px" height="110px" viewBox="0 0 1880 110" version="1.1" xmlns="http://www.w3.org/2000/svg" xmlns:xlink="http://www.w3.org/1999/xlink">
    <!-- Generator: Sketch 43.2 (39069) - http://www.bohemiancoding.com/sketch -->
    <title>The Globe Church</title>
    <desc>Created with Sketch.</desc>
    <defs></defs>
    <g id="Logo" stroke="none" stroke-width="1" fill="none" fill-rule="evenodd">
        <g id="the-globe-church">
            <path d="M26.8758119,15.7323823 L2.80843975,15.7323823 C1.18250095,15.7323823 0,14.3978201 0,12.9269003 L0,4.64971297 C0,3.16428713 1.18250095,1.83552729 2.80843975,1.83552729 L66.3070016,1.83552729 C67.9271438,1.83552729 69.1067464,3.16428713 69.1067464,4.64971297 L69.1067464,12.9269003 C69.1067464,14.3978201 67.9271438,15.7323823 66.3070016,15.7323823 L42.2338328,15.7323823 L42.2338328,102.499239 C42.2338328,103.984665 40.9064175,105.310524 39.4311896,105.310524 L29.6842517,105.310524 C28.2090238,105.310524 26.8758119,103.984665 26.8758119,102.499239 L26.8758119,15.7323823" id="Fill-5" fill="currentColor"></path>
            <path d="M114.609847,4.64971297 C114.609847,3.16428713 115.943058,1.83552729 117.418286,1.83552729 L127.165224,1.83552729 C128.785366,1.83552729 129.967867,3.16428713 129.967867,4.64971297 L129.967867,45.8905887 L184.012218,45.8905887 L184.012218,4.64971297 C184.012218,3.16428713 185.194719,1.83552729 186.823556,1.83552729 L196.567596,1.83552729 C198.045722,1.83552729 199.370239,3.16428713 199.370239,4.64971297 L199.370239,102.499239 C199.370239,103.984665 198.045722,105.310524 196.567596,105.310524 L186.823556,105.310524 C185.194719,105.310524 184.012218,103.984665 184.012218,102.499239 L184.012218,59.7845425 L129.967867,59.7845425 L129.967867,102.499239 C129.967867,103.984665 128.785366,105.310524 127.165224,105.310524 L117.418286,105.310524 C115.943058,105.310524 114.609847,103.984665 114.609847,102.499239 L114.609847,4.64971297" id="Fill-6" fill="currentColor"></path>
            <path d="M257.579428,4.64971297 C257.579428,3.16428713 258.75903,1.83552729 260.382071,1.83552729 L319.446254,1.83552729 C321.075091,1.83552729 322.257592,3.16428713 322.257592,4.64971297 L322.257592,12.9269003 C322.257592,14.3978201 321.075091,15.7323823 319.446254,15.7323823 L272.783839,15.7323823 L272.783839,45.8905887 L312.215029,45.8905887 C313.693155,45.8905887 315.017672,47.2222497 315.017672,48.6931694 L315.017672,56.973258 C315.017672,58.6008438 313.693155,59.7845425 312.215029,59.7845425 L272.783839,59.7845425 L272.783839,91.5674333 L319.446254,91.5674333 C321.075091,91.5674333 322.257592,92.8961932 322.257592,94.3729153 L322.257592,102.499239 C322.257592,103.984665 321.075091,105.310524 319.446254,105.310524 L260.382071,105.310524 C258.75903,105.310524 257.579428,103.984665 257.579428,102.499239 L257.579428,4.64971297" id="Fill-7" fill="currentColor"></path>
            <path d="M481.764797,0.358805117 C495.940317,0.358805117 507.603022,5.52878334 517.642687,14.1076978 C518.825188,15.2913965 518.975899,17.0640434 517.793398,18.2477421 C515.576209,20.6122383 513.364816,22.825871 511.144729,25.1903672 C509.965126,26.5249295 508.782625,26.3740659 507.307397,25.0395036 C500.368899,18.9846526 491.213211,14.9896694 482.202438,14.9896694 C461.236233,14.9896694 445.142047,32.7277429 445.142047,53.4250631 C445.142047,73.974421 461.236233,91.7124944 482.202438,91.7124944 C494.462191,91.7124944 502.875917,87.2765255 504.354043,86.6875773 L504.354043,70.1303014 L489.882898,70.1303014 C488.259857,70.1303014 487.080255,68.9495039 487.080255,67.4698805 L487.080255,58.8967684 C487.080255,57.2749852 488.259857,56.0912864 489.882898,56.0912864 L516.75871,56.0912864 C518.233938,56.0912864 519.416439,57.4200463 519.416439,58.8967684 C519.416439,70.7221507 519.56715,82.8434577 519.56715,94.66884 C519.56715,95.4057505 518.975899,96.586548 518.384649,97.0333362 C518.384649,97.0333362 503.171542,106.790147 481.764797,106.790147 C452.376171,106.790147 428.604424,83.290246 428.604424,53.7267902 C428.604424,24.1604333 452.376171,0.358805117 481.764797,0.358805117" id="Fill-8" fill="currentColor"></path>
            <path d="M575.109915,1.83552729 L584.856853,1.83552729 C586.33208,1.83552729 587.665292,3.16428713 587.665292,4.64971297 L587.665292,91.5674333 L627.679038,91.5674333 C629.307875,91.5674333 630.487477,92.8961932 630.487477,94.3729153 L630.487477,102.499239 C630.487477,103.984665 629.307875,105.310524 627.679038,105.310524 L575.109915,105.310524 C573.489772,105.310524 572.307271,103.984665 572.307271,102.499239 L572.307271,4.64971297 C572.307271,3.16428713 573.489772,1.83552729 575.109915,1.83552729 Z" id="Fill-9" fill="currentColor"></path>
            <path d="M716.117874,73.4638059 C732.762745,73.4638059 746.390498,59.9441097 746.390498,43.2823898 C746.390498,26.7222126 732.762745,12.857271 716.117874,12.857271 C699.583138,12.857271 685.958283,26.7222126 685.958283,43.2823898 C685.958283,59.9441097 699.583138,73.4638059 716.117874,73.4638059 L716.117874,73.4638059 Z M716.117874,1.20306082 C739.402724,1.20306082 758.032923,19.968167 758.032923,43.2823898 C758.032923,66.5908101 739.402724,85.1209173 716.117874,85.1209173 C692.830125,85.1209173 674.315858,66.5908101 674.315858,43.2823898 C674.315858,19.968167 692.830125,1.20306082 716.117874,1.20306082 L716.117874,1.20306082 Z" id="Fill-10" fill="#D06348"></path>
            <path d="M858.823193,46.7754615 C868.271607,46.7754615 874.0363,39.8212315 874.0363,30.9521948 C874.0363,21.9409982 868.271607,15.7323823 858.823193,15.7323823 L838.888778,15.7323823 L838.888778,46.7754615 L858.823193,46.7754615 L858.823193,46.7754615 Z M861.185297,91.7124944 C870.19607,91.7124944 877.13167,84.7611657 877.13167,75.604908 C877.13167,66.5850077 868.567233,60.0804672 858.973904,60.0804672 L838.738067,60.0804672 L838.738067,91.7124944 L861.185297,91.7124944 L861.185297,91.7124944 Z M823.82928,4.64971297 C823.82928,3.16428713 825.008883,1.83552729 826.631923,1.83552729 L859.70717,1.83552729 C877.578006,1.83552729 890.423212,13.6609096 890.423212,29.1795479 C890.423212,40.5639444 882.009486,48.6931694 875.065191,52.6881526 C882.896362,55.9404229 893.527277,63.1876763 893.527277,76.7857054 C893.527277,93.3429814 879.940109,105.310524 861.336007,105.310524 L826.631923,105.310524 C825.008883,105.310524 823.82928,103.984665 823.82928,102.499239 L823.82928,4.64971297 L823.82928,4.64971297 Z" id="Fill-11" fill="currentColor"></path>
            <path d="M945.229812,4.64971297 C945.229812,3.16428713 946.412313,1.83552729 948.04115,1.83552729 L1007.10533,1.83552729 C1008.72837,1.83552729 1009.90798,3.16428713 1009.90798,4.64971297 L1009.90798,12.9269003 C1009.90798,14.3978201 1008.72837,15.7323823 1007.10533,15.7323823 L960.442919,15.7323823 L960.442919,45.8905887 L999.868312,45.8905887 C1001.34354,45.8905887 1002.67675,47.2222497 1002.67675,48.6931694 L1002.67675,56.973258 C1002.67675,58.6008438 1001.34354,59.7845425 999.868312,59.7845425 L960.442919,59.7845425 L960.442919,91.5674333 L1007.10533,91.5674333 C1008.72837,91.5674333 1009.90798,92.8961932 1009.90798,94.3729153 L1009.90798,102.499239 C1009.90798,103.984665 1008.72837,105.310524 1007.10533,105.310524 L948.04115,105.310524 C946.412313,105.310524 945.229812,103.984665 945.229812,102.499239 L945.229812,4.64971297" id="Fill-12" fill="currentColor"></path>
            <path d="M1169.56879,0.358805117 C1184.47758,0.358805117 1195.2621,5.38372222 1205.30177,14.1076978 C1206.62918,15.2913965 1206.62918,17.0640434 1205.44668,18.2477421 L1198.94872,24.8973437 C1197.91983,26.2232024 1196.58662,26.2232024 1195.2621,24.8973437 C1188.31781,18.8395915 1178.86649,14.9896694 1169.71081,14.9896694 C1148.59969,14.9896694 1132.65042,32.7277429 1132.65042,53.4250631 C1132.65042,74.1194821 1148.7417,91.7124944 1169.86152,91.7124944 C1180.64025,91.7124944 1188.17289,87.4302902 1195.2621,81.9556837 C1196.58662,80.9257497 1197.91983,81.0708109 1198.80671,81.8048201 L1205.59739,88.4602242 C1206.77989,89.4930593 1206.48427,91.4165698 1205.44668,92.4465037 C1195.40412,102.212018 1182.70672,106.790147 1169.56879,106.790147 C1140.03525,106.790147 1116.25771,83.290246 1116.25771,53.7267902 C1116.25771,24.1604333 1140.03525,0.358805117 1169.56879,0.358805117" id="Fill-13" fill="currentColor"></path>
            <path d="M1256.43713,4.51478448 C1256.43713,3.02935864 1257.76454,1.7005988 1259.23977,1.7005988 L1268.9925,1.7005988 C1270.61554,1.7005988 1271.79515,3.02935864 1271.79515,4.51478448 L1271.79515,45.7556602 L1325.8424,45.7556602 L1325.8424,4.51478448 C1325.8424,3.02935864 1327.022,1.7005988 1328.65084,1.7005988 L1338.38908,1.7005988 C1339.873,1.7005988 1341.20042,3.02935864 1341.20042,4.51478448 L1341.20042,102.364311 C1341.20042,103.849736 1339.873,105.175595 1338.38908,105.175595 L1328.65084,105.175595 C1327.022,105.175595 1325.8424,103.849736 1325.8424,102.364311 L1325.8424,59.649614 L1271.79515,59.649614 L1271.79515,102.364311 C1271.79515,103.849736 1270.61554,105.175595 1268.9925,105.175595 L1259.23977,105.175595 C1257.76454,105.175595 1256.43713,103.849736 1256.43713,102.364311 L1256.43713,4.51478448" id="Fill-14" fill="currentColor"></path>
            <path d="M1397.76249,4.64971297 C1397.76249,3.16428713 1399.0957,1.83552729 1400.56513,1.83552729 L1410.46278,1.83552729 C1412.09162,1.83552729 1413.27122,3.16428713 1413.27122,4.64971297 L1413.27122,65.6972336 C1413.27122,80.4789615 1422.72253,92.0084191 1437.77913,92.0084191 C1452.99224,92.0084191 1462.58557,80.6240226 1462.58557,65.9931583 L1462.58557,4.64971297 C1462.58557,3.16428713 1463.76807,1.83552729 1465.39401,1.83552729 L1475.29166,1.83552729 C1476.76109,1.83552729 1478.0943,3.16428713 1478.0943,4.64971297 L1478.0943,66.7358712 C1478.0943,89.2029371 1461.11614,106.790147 1437.77913,106.790147 C1414.59864,106.790147 1397.76249,89.2029371 1397.76249,66.7358712 L1397.76249,4.64971297" id="Fill-15" fill="currentColor"></path>
            <path d="M1576.75777,52.0963033 C1586.3511,52.0963033 1594.77063,43.964177 1594.77063,33.7663805 C1594.77063,24.1604333 1586.3511,16.1704669 1576.75777,16.1704669 L1550.47321,16.1704669 L1550.47321,52.0963033 L1576.75777,52.0963033 L1576.75777,52.0963033 Z M1534.96448,4.64971297 C1534.96448,3.16428713 1536.14408,1.83552729 1537.77292,1.83552729 L1577.93738,1.83552729 C1595.6575,1.83552729 1610.12865,15.8832459 1610.12865,33.4704558 C1610.12865,47.0713862 1601.11787,58.3049191 1588.27267,63.4748973 L1608.5085,101.028319 C1609.5374,102.946027 1608.5085,105.310524 1605.99569,105.310524 L1594.475,105.310524 C1593.2954,105.310524 1592.40852,104.576514 1592.1129,103.984665 L1572.47701,64.8094596 L1550.17759,64.8094596 L1550.17759,102.499239 C1550.17759,103.984665 1548.85017,105.310524 1547.36625,105.310524 L1537.77292,105.310524 C1536.14408,105.310524 1534.96448,103.984665 1534.96448,102.499239 L1534.96448,4.64971297 L1534.96448,4.64971297 Z" id="Fill-16" fill="currentColor"></path>
            <path d="M1708.4965,0.358805117 C1723.41398,0.358805117 1734.1956,5.38372222 1744.23817,14.1076978 C1745.56268,15.2913965 1745.56268,17.0640434 1744.38308,18.2477421 L1737.88512,24.8973437 C1736.84753,26.2232024 1735.52302,26.2232024 1734.1956,24.8973437 C1727.25131,18.8395915 1717.80289,14.9896694 1708.64721,14.9896694 C1687.53319,14.9896694 1671.58681,32.7277429 1671.58681,53.4250631 C1671.58681,74.1194821 1687.6781,91.7124944 1708.79792,91.7124944 C1719.57375,91.7124944 1727.10929,87.4302902 1734.1956,81.9556837 C1735.52302,80.9257497 1736.84753,81.0708109 1737.74021,81.8048201 L1744.5251,88.4602242 C1745.7076,89.4930593 1745.41777,91.4165698 1744.38308,92.4465037 C1734.34052,102.212018 1721.64022,106.790147 1708.4965,106.790147 C1678.96295,106.790147 1655.19121,83.290246 1655.19121,53.7267902 C1655.19121,24.1604333 1678.96295,0.358805117 1708.4965,0.358805117" id="Fill-17" fill="currentColor"></path>
            <path d="M1795.05988,4.51478448 C1795.05988,3.02935864 1796.3873,1.7005988 1797.86252,1.7005988 L1807.61526,1.7005988 C1809.2383,1.7005988 1810.4179,3.02935864 1810.4179,4.51478448 L1810.4179,45.7556602 L1864.46515,45.7556602 L1864.46515,4.51478448 C1864.46515,3.02935864 1865.64475,1.7005988 1867.27359,1.7005988 L1877.01183,1.7005988 C1878.49576,1.7005988 1879.82317,3.02935864 1879.82317,4.51478448 L1879.82317,102.364311 C1879.82317,103.849736 1878.49576,105.175595 1877.01183,105.175595 L1867.27359,105.175595 C1865.64475,105.175595 1864.46515,103.849736 1864.46515,102.364311 L1864.46515,59.649614 L1810.4179,59.649614 L1810.4179,102.364311 C1810.4179,103.849736 1809.2383,105.175595 1807.61526,105.175595 L1797.86252,105.175595 C1796.3873,105.175595 1795.05988,103.849736 1795.05988,102.364311 L1795.05988,4.51478448" id="Fill-18" fill="currentColor"></path>
            <rect id="Rectangle" fill="#D06348" x="685.842804" y="100.203593" width="62.8742515" height="10.6271775" rx="1.75"></rect>
        </g>
    </g>
</svg>
